<svg width="24" height="18" viewBox="0 0 24 18" fill="none" xmlns="http://www.w3.org/2000/svg">
<path d="M22.5637 0.840088H1.44372C0.649801 0.840088 0.00372314 1.48617 0.00372314 2.28009V15.7201C0.00372314 16.514 0.649801 17.1601 1.44372 17.1601H22.5637C23.3576 17.1601 24.0037 16.514 24.0037 15.7201V2.28009C24.0037 1.48617 23.3576 0.840088 22.5637 0.840088ZM23.0437 15.7201C23.0437 15.9841 22.8277 16.2001 22.5637 16.2001H1.44372C1.17879 16.2001 0.963723 15.9841 0.963723 15.7201V2.28009C0.963723 2.0151 1.17879 1.80009 1.44372 1.80009H22.5637C22.8277 1.80009 23.0437 2.0151 23.0437 2.28009V15.7201Z" fill="#B0BBD5"/>
<path d="M0.483727 5.16003H23.5237V7.08003H0.483727V5.16003Z" fill="#B0BBD5"/>
<path d="M23.5237 4.68005H0.483723C0.218786 4.68005 0.00372314 4.89507 0.00372314 5.16005V7.08005C0.00372314 7.34504 0.218786 7.56005 0.483723 7.56005H23.5237C23.7887 7.56005 24.0037 7.34504 24.0037 7.08005V5.16005C24.0037 4.89507 23.7887 4.68005 23.5237 4.68005ZM23.0437 6.60005H0.963723V5.64005H23.0437V6.60005ZM12.9637 10.4401H4.32372C4.05879 10.4401 3.84372 10.6551 3.84372 10.9201C3.84372 11.185 4.05879 11.4001 4.32372 11.4001H12.9637C13.2287 11.4001 13.4437 11.185 13.4437 10.9201C13.4437 10.6551 13.2287 10.4401 12.9637 10.4401ZM9.12372 12.3601H4.32372C4.05879 12.3601 3.84372 12.5751 3.84372 12.8401C3.84372 13.105 4.05879 13.3201 4.32372 13.3201H9.12372C9.38866 13.3201 9.60372 13.105 9.60372 12.8401C9.60372 12.5751 9.38866 12.3601 9.12372 12.3601Z" fill="#B0BBD5"/>
</svg>
