<svg width="20" height="21" viewBox="0 0 20 21" fill="none" xmlns="http://www.w3.org/2000/svg">
<path d="M8.27 19C8.27059 19.2477 8.19778 19.4899 8.06077 19.6962C7.92375 19.9025 7.72868 20.0636 7.50019 20.1591C7.27169 20.2546 7.02002 20.2802 6.77696 20.2328C6.5339 20.1853 6.31035 20.0669 6.13454 19.8925C5.95873 19.7181 5.83854 19.4955 5.78916 19.2528C5.73979 19.0101 5.76343 18.7583 5.8571 18.529C5.95078 18.2998 6.11028 18.1034 6.31548 17.9648C6.52067 17.8261 6.76236 17.7514 7.01 17.75H7.02C7.35152 17.75 7.66946 17.8817 7.90388 18.1161C8.1383 18.3505 8.27 18.6685 8.27 19ZM15.02 17.75H15.01C14.6776 17.7513 14.3593 17.8845 14.1249 18.1202C13.8906 18.356 13.7593 18.6751 13.76 19.0075C13.7607 19.3399 13.8932 19.6585 14.1285 19.8933C14.3638 20.1281 14.6826 20.26 15.015 20.26C15.3474 20.26 15.6662 20.1281 15.9015 19.8933C16.1368 19.6585 16.2693 19.3399 16.27 19.0075C16.2707 18.6751 16.1394 18.356 15.9051 18.1202C15.6707 17.8845 15.3524 17.7513 15.02 17.75ZM19.705 6.492L18.691 12.658C18.6658 13.1086 18.5485 13.5492 18.3463 13.9526C18.144 14.3561 17.8612 14.7137 17.5153 15.0035C17.1693 15.2933 16.7676 15.5091 16.335 15.6375C15.9024 15.7659 15.448 15.8042 15 15.75H6.734C6.07297 15.7472 5.43488 15.5074 4.9356 15.0742C4.43632 14.641 4.10897 14.043 4.013 13.389L2.5 2.823C2.45631 2.52627 2.30787 2.25497 2.08154 2.05817C1.85521 1.86137 1.56592 1.75205 1.266 1.75H1C0.801088 1.75 0.610322 1.67098 0.46967 1.53033C0.329018 1.38968 0.25 1.19891 0.25 1C0.25 0.801088 0.329018 0.610322 0.46967 0.46967C0.610322 0.329018 0.801088 0.25 1 0.25H1.266C1.92703 0.25281 2.56512 0.492601 3.0644 0.925825C3.56369 1.35905 3.89103 1.95697 3.987 2.611L4.079 3.25H17C17.4028 3.24995 17.8008 3.33839 18.1656 3.50909C18.5305 3.67979 18.8535 3.92856 19.1116 4.23783C19.3697 4.54709 19.5568 4.90929 19.6595 5.29881C19.7622 5.68833 19.7771 6.09566 19.705 6.492ZM17.959 5.2C17.8419 5.05925 17.6953 4.94597 17.5296 4.8682C17.3639 4.79043 17.1831 4.75008 17 4.75H4.293L5.493 13.177C5.53687 13.4749 5.68632 13.7472 5.91411 13.9441C6.1419 14.1411 6.43287 14.2496 6.734 14.25H15C16.6 14.25 16.986 13.65 17.213 12.403L18.227 6.236C18.2616 6.05424 18.2555 5.86708 18.2092 5.68795C18.1628 5.50883 18.0774 5.34219 17.959 5.2ZM13.5 8.75H12.25V7.5C12.25 7.30109 12.171 7.11032 12.0303 6.96967C11.8897 6.82902 11.6989 6.75 11.5 6.75C11.3011 6.75 11.1103 6.82902 10.9697 6.96967C10.829 7.11032 10.75 7.30109 10.75 7.5V8.75H9.5C9.30109 8.75 9.11032 8.82902 8.96967 8.96967C8.82902 9.11032 8.75 9.30109 8.75 9.5C8.75 9.69891 8.82902 9.88968 8.96967 10.0303C9.11032 10.171 9.30109 10.25 9.5 10.25H10.75V11.5C10.75 11.6989 10.829 11.8897 10.9697 12.0303C11.1103 12.171 11.3011 12.25 11.5 12.25C11.6989 12.25 11.8897 12.171 12.0303 12.0303C12.171 11.8897 12.25 11.6989 12.25 11.5V10.25H13.5C13.6989 10.25 13.8897 10.171 14.0303 10.0303C14.171 9.88968 14.25 9.69891 14.25 9.5C14.25 9.30109 14.171 9.11032 14.0303 8.96967C13.8897 8.82902 13.6989 8.75 13.5 8.75Z" fill="#B0BBD5"/>
</svg>
