<svg width="18" height="18" viewBox="0 0 18 18" fill="none" xmlns="http://www.w3.org/2000/svg">
<path d="M2.46667 5.73331H2.7C3.59834 5.73331 4.33334 6.46831 4.33334 7.36665V15.5333C4.33334 16.4316 3.59834 17.1666 2.7 17.1666H2.46667C1.56834 17.1666 0.833336 16.4316 0.833336 15.5333V7.36665C0.833336 6.46831 1.56834 5.73331 2.46667 5.73331ZM9 0.833313C9.89834 0.833313 10.6333 1.56831 10.6333 2.46665V15.5333C10.6333 16.4316 9.89834 17.1666 9 17.1666C8.10167 17.1666 7.36667 16.4316 7.36667 15.5333V2.46665C7.36667 1.56831 8.10167 0.833313 9 0.833313ZM15.5333 10.1666C16.4317 10.1666 17.1667 10.9016 17.1667 11.8V15.5333C17.1667 16.4316 16.4317 17.1666 15.5333 17.1666C14.635 17.1666 13.9 16.4316 13.9 15.5333V11.8C13.9 10.9016 14.635 10.1666 15.5333 10.1666Z" fill="#B0BBD5"/>
</svg>
