<svg width="24" height="24" viewBox="0 0 24 24" fill="none" xmlns="http://www.w3.org/2000/svg">
<path d="M22.3068 14.8359L20.024 13.05C20.0756 12.7031 20.099 12.3516 20.099 12.0047C20.0943 11.6484 20.0709 11.2922 20.024 10.9406L22.3068 9.15469C22.5131 8.98594 22.5647 8.69063 22.4287 8.46094L20.2678 4.73438C20.1318 4.50469 19.8506 4.41094 19.6068 4.50469L16.9256 5.57812C16.3678 5.14219 15.7537 4.78594 15.1022 4.51406L14.699 1.66406C14.6475 1.40625 14.4225 1.22344 14.16 1.21875H9.84278C9.57559 1.22344 9.35059 1.41563 9.30372 1.68281L8.90059 4.53281C8.24903 4.80937 7.63966 5.16563 7.08185 5.59688L4.39591 4.51875C4.14747 4.425 3.87091 4.52344 3.73497 4.74844L1.57403 8.475C1.4381 8.70469 1.49435 9 1.69591 9.16875L3.97872 10.9547C3.92716 11.3016 3.90372 11.6531 3.90372 12C3.90841 12.3562 3.93185 12.7125 3.97872 13.0641L1.69591 14.85C1.48966 15.0187 1.4381 15.3141 1.57403 15.5438L3.73497 19.2703C3.87091 19.5 4.15216 19.5938 4.39591 19.5L7.08185 18.4219C7.63966 18.8578 8.24903 19.2141 8.90059 19.4859L9.30372 22.3359C9.35528 22.5938 9.58028 22.7766 9.84278 22.7812H14.16C14.4272 22.7766 14.6522 22.5844 14.699 22.3172L15.1022 19.4672C15.7537 19.1906 16.3631 18.8344 16.9209 18.4031L19.6068 19.4813C19.8553 19.575 20.1318 19.4766 20.2678 19.2516L22.4287 15.525C22.5647 15.2953 22.5084 15.0047 22.3068 14.8359ZM12.0037 15.75C9.93184 15.75 8.25372 14.0719 8.25372 12C8.25372 9.92813 9.93184 8.25 12.0037 8.25C14.0709 8.25469 15.749 9.93281 15.7537 12C15.7537 14.0719 14.0756 15.75 12.0037 15.75Z" fill="#B0BBD5"/>
</svg>
