<svg width="19" height="25" viewBox="0 0 19 25" fill="none" xmlns="http://www.w3.org/2000/svg">
<path d="M16.5722 9.94995H15.8222V6.94995C15.8222 3.64095 13.1312 0.949951 9.82219 0.949951C6.51319 0.949951 3.82219 3.64095 3.82219 6.94995V9.94995H3.07219C2.4757 9.95074 1.90386 10.1881 1.48208 10.6098C1.06029 11.0316 0.822983 11.6035 0.822189 12.2V22.7C0.822189 23.941 1.83219 24.95 3.07219 24.95H16.5722C17.8122 24.95 18.8222 23.941 18.8222 22.7V12.2C18.8222 10.959 17.8122 9.94995 16.5722 9.94995ZM5.82219 6.94995C5.82219 4.74395 7.61619 2.94995 9.82219 2.94995C12.0282 2.94995 13.8222 4.74395 13.8222 6.94995V9.94995H5.82219V6.94995ZM10.8222 17.672V19.95C10.8222 20.2152 10.7168 20.4695 10.5293 20.6571C10.3418 20.8446 10.0874 20.95 9.82219 20.95C9.55697 20.95 9.30262 20.8446 9.11508 20.6571C8.92755 20.4695 8.82219 20.2152 8.82219 19.95V17.672C8.22719 17.325 7.82219 16.687 7.82219 15.95C7.82219 14.847 8.71919 13.95 9.82219 13.95C10.9252 13.95 11.8222 14.847 11.8222 15.95C11.8222 16.687 11.4172 17.325 10.8222 17.672Z" fill="#B0BBD5"/>
</svg>
